<svg width="27" height="25" viewBox="0 0 27 25" fill="none" xmlns="http://www.w3.org/2000/svg">
<path id="Vector" d="M25.8917 4.55125H4.7789L4.46584 1.02C4.4411 0.741262 4.31396 0.481977 4.10945 0.293197C3.90493 0.104417 3.63786 -0.000180473 3.36083 2.33756e-07H1.10873C0.814673 2.33756e-07 0.532665 0.118 0.324738 0.328041C0.116812 0.538081 0 0.822958 0 1.12C0 1.41704 0.116812 1.70192 0.324738 1.91196C0.532665 2.122 0.814673 2.24 1.10873 2.24H2.34614L3.62192 16.5938C3.71225 17.6287 4.26538 18.7512 5.21943 19.5138C3.50065 21.7313 5.07094 25 7.8675 25C10.1877 25 11.8235 22.6625 11.0279 20.4475H17.0974C16.303 22.66 17.9351 25 20.259 25C21.1504 24.999 22.0049 24.6409 22.6352 24.0042C23.2655 23.3675 23.6201 22.5042 23.6211 21.6038C23.6201 20.7033 23.2655 19.84 22.6352 19.2033C22.0049 18.5666 21.1504 18.2085 20.259 18.2075H7.87492C7.03224 18.2075 6.29845 17.695 5.98167 16.9463L23.7027 15.8938C23.9385 15.8798 24.1637 15.7903 24.3455 15.638C24.5274 15.4858 24.6564 15.2789 24.7137 15.0475L26.967 5.94375C27.0078 5.77851 27.0108 5.60606 26.9758 5.43948C26.9407 5.27291 26.8686 5.11658 26.7648 4.98236C26.6611 4.84815 26.5284 4.73957 26.3769 4.66487C26.2254 4.59018 26.0603 4.55132 25.8917 4.55125ZM7.86626 22.76C7.5719 22.7462 7.29413 22.6183 7.09065 22.403C6.88718 22.1877 6.77365 21.9014 6.77365 21.6038C6.77365 21.3061 6.88718 21.0198 7.09065 20.8045C7.29413 20.5892 7.5719 20.4613 7.86626 20.4475C8.16062 20.4613 8.4384 20.5892 8.64187 20.8045C8.84534 21.0198 8.95887 21.3061 8.95887 21.6038C8.95887 21.9014 8.84534 22.1877 8.64187 22.403C8.4384 22.6183 8.16062 22.7462 7.86626 22.76ZM20.259 22.76C19.9646 22.7462 19.6869 22.6183 19.4834 22.403C19.2799 22.1877 19.1664 21.9014 19.1664 21.6038C19.1664 21.3061 19.2799 21.0198 19.4834 20.8045C19.6869 20.5892 19.9646 20.4613 20.259 20.4475C20.5534 20.4613 20.8311 20.5892 21.0346 20.8045C21.2381 21.0198 21.3516 21.3061 21.3516 21.6038C21.3516 21.9014 21.2381 22.1877 21.0346 22.403C20.8311 22.6183 20.5534 22.7462 20.259 22.76ZM22.7598 13.7063L5.68346 14.7188L4.97813 6.7925H24.4712L22.7598 13.705V13.7063Z" fill="white"/>
</svg>
