<svg width="22" height="22" viewBox="0 0 22 22" fill="none" xmlns="http://www.w3.org/2000/svg">
<g id="Frame">
<rect width="22" height="22" fill="white"/>
<path id="Vector" d="M17.4166 10.0833H4.58334C3.57081 10.0833 2.75 10.9041 2.75 11.9166V18.3333C2.75 19.3458 3.57081 20.1666 4.58334 20.1666H17.4166C18.4292 20.1666 19.25 19.3458 19.25 18.3333V11.9166C19.25 10.9041 18.4292 10.0833 17.4166 10.0833Z" stroke="#00043C" stroke-width="2" stroke-linecap="round" stroke-linejoin="round"/>
<path id="Vector_2" d="M6.4167 10.0833V6.41658C6.4167 5.201 6.89959 4.03522 7.75913 3.17568C8.61867 2.31613 9.78446 1.83325 11 1.83325C12.2156 1.83325 13.3814 2.31613 14.2409 3.17568C15.1005 4.03522 15.5834 5.201 15.5834 6.41658V10.0833" stroke="#00043C" stroke-width="2" stroke-linecap="round" stroke-linejoin="round"/>
</g>
</svg>
