<svg width="35" height="32" viewBox="0 0 35 32" fill="none" xmlns="http://www.w3.org/2000/svg">
<g id="patient_list_FILL0_wght400_GRAD0_opsz24 1">
<path id="Vector" d="M18.9583 13.3333C17.7431 13.3333 16.7101 12.9444 15.8594 12.1667C15.0087 11.3889 14.5833 10.4444 14.5833 9.33333C14.5833 8.22222 15.0087 7.27778 15.8594 6.5C16.7101 5.72222 17.7431 5.33333 18.9583 5.33333C20.1736 5.33333 21.2066 5.72222 22.0573 6.5C22.908 7.27778 23.3333 8.22222 23.3333 9.33333C23.3333 10.4444 22.908 11.3889 22.0573 12.1667C21.2066 12.9444 20.1736 13.3333 18.9583 13.3333ZM10.2083 21.3333V18.8C10.2083 18.3333 10.3299 17.8889 10.5729 17.4667C10.816 17.0444 11.1563 16.7111 11.5938 16.4667C12.6875 15.8667 13.8481 15.4167 15.0755 15.1167C16.303 14.8167 17.5972 14.6667 18.9583 14.6667C20.3194 14.6667 21.6137 14.8167 22.8411 15.1167C24.0686 15.4167 25.2292 15.8667 26.3229 16.4667C26.7604 16.7111 27.1007 17.0444 27.3438 17.4667C27.5868 17.8889 27.7083 18.3333 27.7083 18.8V21.3333H10.2083ZM13.3438 18.6667H24.5729C23.7222 18.2222 22.8229 17.8889 21.875 17.6667C20.9271 17.4444 19.9549 17.3333 18.9583 17.3333C17.9618 17.3333 16.9896 17.4444 16.0417 17.6667C15.0938 17.8889 14.1944 18.2222 13.3438 18.6667ZM18.9583 10.6667C19.3715 10.6667 19.7179 10.5389 19.9974 10.2833C20.2769 10.0278 20.4167 9.71111 20.4167 9.33333C20.4167 8.95556 20.2769 8.63889 19.9974 8.38333C19.7179 8.12778 19.3715 8 18.9583 8C18.5451 8 18.1988 8.12778 17.9193 8.38333C17.6398 8.63889 17.5 8.95556 17.5 9.33333C17.5 9.71111 17.6398 10.0278 17.9193 10.2833C18.1988 10.5389 18.5451 10.6667 18.9583 10.6667ZM0 13.3333V10.6667H11.6667V13.3333H0ZM0 2.66667V0H17.5V2.66667H0ZM11.8125 8H0V5.33333H13.125C12.7847 5.71111 12.5113 6.12222 12.3047 6.56667C12.0981 7.01111 11.934 7.48889 11.8125 8Z" fill="white"/>
</g>
</svg>
